<?xml version="1.0" standalone="no"?>
<!DOCTYPE svg PUBLIC "-//W3C//DTD SVG 20010904//EN"
 "http://www.w3.org/TR/2001/REC-SVG-20010904/DTD/svg10.dtd">
<svg version="1.0" xmlns="http://www.w3.org/2000/svg"
 width="300.000000pt" height="270.000000pt" viewBox="0 0 300.000000 270.000000"
 preserveAspectRatio="xMidYMid meet">
<metadata>
Created by potrace 1.10, written by Peter Selinger 2001-2011
</metadata>
<g transform="translate(0.000000,270.000000) scale(0.100000,-0.100000)"
fill="#000000" stroke="none">
<path d="M1564 2570 c-5 -4 -40 -10 -79 -13 -87 -7 -111 -12 -203 -43 -82 -27
-231 -93 -248 -109 -6 -5 -27 -19 -47 -30 -20 -11 -37 -23 -37 -27 0 -5 -4 -8
-10 -8 -16 0 -49 -29 -155 -135 -168 -168 -249 -313 -317 -565 -24 -87 -36
-203 -32 -319 9 -370 191 -718 488 -936 34 -25 66 -50 73 -55 7 -6 16 -10 22
-10 5 0 11 -3 13 -7 9 -21 216 -106 337 -139 100 -27 314 -37 446 -21 162 19
379 106 528 210 547 384 682 1116 310 1676 -98 147 -285 316 -433 390 -67 34
-183 81 -230 93 -148 38 -154 39 -280 44 -63 3 -120 6 -126 9 -6 2 -15 0 -20
-5z m-66 -308 c-2 -72 1 -132 5 -132 5 0 28 19 52 41 53 50 87 68 140 78 l40
7 0 142 0 142 23 0 c47 0 224 -41 304 -70 563 -206 887 -822 738 -1405 -139
-544 -652 -923 -1209 -892 -546 30 -990 409 -1107 947 -15 65 -19 123 -18 250
1 143 5 178 27 262 61 231 148 387 307 548 181 185 372 291 610 339 l85 17 3
-71 c2 -38 2 -130 0 -203z m218 144 l2 -134 -50 -16 c-28 -9 -72 -32 -98 -51
-26 -19 -49 -35 -51 -35 -2 0 -4 83 -4 185 l0 185 100 0 100 0 1 -134z"/>
<path d="M1912 2353 c-24 -25 -63 -54 -88 -64 -49 -22 -72 -46 -33 -36 13 4
32 7 41 7 23 0 82 52 109 96 12 19 20 37 18 39 -2 2 -24 -17 -47 -42z"/>
<path d="M1960 2311 c0 -20 -12 -41 -38 -67 -22 -22 -41 -50 -44 -64 -3 -14
-9 -33 -13 -43 -6 -14 -4 -16 11 -11 30 11 54 35 54 55 0 10 14 31 30 47 34
34 42 95 15 106 -11 4 -15 -2 -15 -23z"/>
<path d="M1220 2215 c-12 -14 23 -65 44 -65 20 0 48 36 44 56 -4 22 -72 28
-88 9z m64 -24 c7 -11 -22 -23 -35 -15 -5 3 -7 10 -4 15 8 12 32 12 39 0z"/>
<path d="M1673 2208 c-13 -6 -23 -15 -23 -20 0 -5 -4 -7 -9 -4 -5 4 -33 -14
-63 -37 -81 -67 -93 -71 -133 -53 -19 9 -37 21 -40 26 -4 6 -20 17 -36 26 -29
15 -32 14 -77 -15 -41 -26 -44 -31 -27 -37 35 -13 71 -64 96 -136 26 -78 87
-151 139 -169 27 -10 48 -34 76 -87 17 -33 25 -13 10 23 -7 17 -13 34 -14 39
-1 9 -29 27 -72 46 -26 12 -100 88 -100 103 0 8 -27 73 -53 127 -7 14 -22 33
-35 44 -19 15 -21 21 -10 33 17 21 74 10 105 -21 14 -14 29 -23 34 -21 4 3 10
1 13 -4 12 -19 90 22 160 84 21 18 74 45 90 45 13 0 15 -9 12 -50 -3 -27 0
-52 5 -55 5 -4 9 15 9 44 0 27 3 56 6 65 7 19 -28 21 -63 4z"/>
<path d="M1070 1962 c0 -109 2 -123 16 -118 9 3 79 6 156 6 136 0 141 1 125
18 -10 10 -17 26 -17 35 0 9 -4 17 -9 17 -4 0 -11 16 -14 35 -3 20 -20 53 -37
75 -33 42 -46 46 -157 53 l-63 3 0 -124z m176 77 c34 -20 74 -75 74 -100 0 -8
7 -26 14 -41 l15 -28 -130 0 -129 0 0 95 0 95 61 0 c45 0 71 -6 95 -21z"/>
<path d="M1755 2081 c-20 -4 -26 -9 -17 -14 17 -11 15 -43 -5 -75 -24 -37 -39
-48 -106 -72 -54 -20 -58 -24 -52 -47 3 -14 27 -48 53 -75 72 -75 72 -76 88
-257 4 -40 3 -76 -2 -80 -5 -3 -17 -22 -27 -41 -21 -40 -77 -103 -129 -142
-30 -23 -37 -25 -42 -12 -3 9 -6 113 -6 232 l1 217 29 -35 c24 -28 28 -31 23
-12 -5 20 -63 92 -74 92 -3 0 -5 -130 -4 -290 0 -159 3 -290 7 -290 4 0 15 10
25 23 10 12 44 45 76 72 32 28 79 80 103 116 42 64 44 70 44 142 0 42 -7 106
-16 143 -14 61 -22 75 -81 137 l-65 70 58 20 c33 11 70 29 82 41 30 27 54 71
50 94 -2 9 2 17 7 18 19 2 45 16 45 25 0 10 -20 10 -65 0z"/>
<path d="M1867 2069 c-3 -11 -19 -25 -36 -32 -22 -8 -29 -16 -26 -28 14 -44
-39 -97 -128 -130 l-37 -13 42 -43 c23 -24 46 -43 51 -43 5 0 7 16 4 35 l-6
35 210 0 209 0 0 120 0 120 -139 0 c-132 0 -139 -1 -144 -21z m253 -47 c0 -20
3 -61 6 -89 l6 -53 -108 -1 c-246 -1 -322 -12 -310 -46 7 -16 -6 -17 -22 -1
-19 19 -15 24 31 46 55 26 95 64 103 99 4 15 23 42 41 58 35 30 35 30 144 27
l109 -3 0 -37z"/>
<path d="M1408 1800 c31 -29 52 -38 52 -22 0 8 -66 52 -77 52 -5 0 7 -14 25
-30z"/>
<path d="M1742 1725 c17 -33 61 -134 74 -169 38 -111 38 -321 0 -431 -23 -64
-102 -214 -121 -227 -5 -4 -6 -10 -2 -14 4 -4 16 4 28 17 12 13 25 23 30 21 5
-1 8 1 7 5 -1 5 10 35 26 68 40 84 76 192 77 234 1 20 5 47 10 61 6 17 7 0 4
-50 -5 -77 -8 -104 -17 -130 -3 -8 -13 -40 -23 -70 -10 -30 -21 -57 -24 -60
-14 -12 -92 -178 -97 -207 -4 -18 -10 -33 -14 -33 -24 0 -40 131 -21 168 5 9
15 37 22 62 7 25 28 79 47 120 31 64 36 85 36 150 0 49 -6 89 -18 115 l-17 39
-23 -40 c-13 -23 -68 -86 -123 -140 -93 -93 -100 -103 -112 -158 -9 -42 -10
-61 -2 -69 6 -6 11 -18 11 -26 0 -9 14 -36 31 -61 47 -69 110 -108 79 -49 -21
38 6 131 57 200 47 64 43 79 -7 27 -40 -42 -68 -96 -76 -147 -4 -23 -9 -41
-13 -41 -12 0 -50 69 -56 102 -7 39 5 97 27 124 7 9 55 59 106 111 50 52 92
99 93 106 2 39 18 -39 18 -91 1 -53 -5 -76 -36 -140 -57 -121 -64 -142 -70
-228 -4 -64 -2 -89 11 -114 9 -18 16 -37 16 -41 0 -13 -32 2 -75 35 -58 45
-73 62 -96 106 -25 48 -42 62 -34 27 4 -13 7 -70 8 -125 l2 -102 121 0 121 0
6 66 c4 39 16 84 28 108 58 108 102 201 110 232 5 19 13 51 19 72 5 20 10 83
10 139 0 99 -3 116 -47 248 -19 59 -78 174 -100 195 -9 8 -13 11 -11 5z m-218
-946 c-3 -5 -1 -8 4 -7 5 2 24 -9 41 -25 17 -15 34 -28 38 -28 5 -1 18 -6 31
-12 17 -8 29 -8 43 1 16 10 19 9 19 -3 0 -8 -3 -15 -7 -16 -5 0 -47 -2 -95 -5
l-88 -5 0 61 c0 39 4 59 10 55 6 -4 8 -11 4 -16z"/>
<path d="M1827 584 c-3 -6 -2 -16 3 -24 5 -8 6 -41 3 -73 -5 -48 -3 -59 8 -55
9 3 15 22 17 51 l3 47 24 -28 23 -27 13 28 c18 41 29 33 26 -20 -1 -34 2 -48
11 -48 10 0 14 20 15 73 1 42 -2 72 -8 72 -5 0 -22 -14 -36 -31 l-26 -32 -35
38 c-19 21 -37 34 -41 29z"/>
<path d="M907 574 c-9 -9 4 -57 17 -66 8 -5 7 -8 -1 -8 -8 0 -13 -13 -13 -30
0 -18 5 -30 13 -30 9 0 12 10 9 30 -4 25 -1 30 14 28 11 -2 19 2 19 7 0 6 -8
9 -17 8 -13 -2 -18 4 -18 23 0 23 3 25 25 20 18 -5 25 -2 25 9 0 10 -10 15
-33 15 -19 0 -37 -3 -40 -6z"/>
<path d="M998 573 c-9 -23 -2 -137 10 -140 9 -4 12 15 12 71 0 42 -4 76 -9 76
-6 0 -11 -3 -13 -7z"/>
<path d="M1040 505 c0 -59 3 -75 14 -75 10 0 16 13 18 38 4 36 4 37 15 12 13
-30 41 -56 50 -46 4 3 -3 16 -15 29 -23 25 -29 47 -12 47 6 0 10 11 10 25 0
26 -25 45 -59 45 -19 0 -21 -6 -21 -75z m55 30 c0 -10 -6 -20 -12 -22 -8 -3
-13 5 -13 22 0 17 5 25 13 23 6 -3 12 -13 12 -23z"/>
<path d="M1164 562 c-8 -7 -14 -20 -14 -27 0 -15 27 -45 41 -45 5 0 9 -9 9
-20 0 -23 -10 -26 -28 -8 -9 9 -12 7 -12 -10 0 -30 43 -30 64 0 14 20 14 24
-1 40 -9 10 -22 18 -30 18 -9 0 -13 8 -11 22 2 18 10 22 46 24 l42 2 0 -65 c0
-46 3 -64 12 -61 8 3 13 26 13 64 0 49 3 59 16 56 9 -1 19 5 23 13 5 13 -6 15
-76 13 -52 -2 -86 -7 -94 -16z"/>
<path d="M1457 560 c-21 -31 -23 -58 -3 -41 10 9 16 8 26 -4 11 -13 8 -15 -18
-15 -22 0 -36 -8 -51 -29 -19 -27 -19 -41 1 -41 5 0 14 11 20 25 7 16 19 25
35 25 16 0 27 -8 33 -25 9 -25 30 -35 30 -14 0 5 -8 29 -18 52 -10 23 -23 53
-28 66 l-10 25 -17 -24z"/>
<path d="M1558 569 c-27 -15 -22 -53 7 -69 14 -7 25 -22 25 -32 0 -20 -11 -23
-27 -7 -8 8 -13 7 -18 -1 -13 -21 12 -35 42 -24 39 13 39 54 1 72 -16 7 -28
17 -28 22 0 11 21 24 37 25 7 0 14 5 15 10 4 14 -33 17 -54 4z"/>
<path d="M1648 569 c-27 -15 -23 -57 7 -71 24 -11 32 -28 18 -41 -3 -4 -12 -2
-19 4 -16 13 -31 -8 -16 -23 16 -16 60 -1 67 22 8 25 0 39 -31 50 -25 10 -33
39 -11 41 6 1 18 2 24 3 7 0 14 6 15 11 4 14 -33 17 -54 4z"/>
<path d="M1730 550 c0 -34 15 -40 23 -9 4 16 11 19 26 14 15 -5 21 -2 21 9 0
12 -10 16 -35 16 -32 0 -35 -2 -35 -30z"/>
<path d="M2000 530 c0 -27 5 -50 10 -50 11 0 13 11 10 53 -1 19 3 27 15 27 14
0 16 -6 12 -30 -4 -16 -2 -32 3 -35 16 -10 12 -32 -7 -39 -9 -4 -20 -2 -23 5
-6 8 -9 8 -14 0 -11 -18 2 -29 30 -26 39 4 59 46 33 72 -8 8 -8 13 0 17 26 16
-6 56 -45 56 -22 0 -24 -4 -24 -50z"/>
<path d="M2095 559 c7 -22 9 -83 3 -109 -2 -9 9 -15 35 -17 29 -3 37 -1 37 12
0 11 -7 15 -22 13 -22 -3 -23 1 -23 57 0 50 -3 60 -18 63 -16 3 -18 0 -12 -19z"/>
<path d="M2160 575 c0 -9 25 -50 35 -57 5 -4 8 -25 6 -47 -2 -32 1 -41 14 -41
12 0 15 9 14 38 -2 27 4 48 19 69 26 37 27 43 7 43 -9 0 -20 -11 -25 -25 -5
-14 -14 -25 -19 -25 -5 0 -12 11 -15 25 -4 14 -13 25 -21 25 -8 0 -15 -2 -15
-5z"/>
<path d="M1753 513 c-19 -4 -23 -11 -23 -44 l0 -40 37 3 c27 2 39 8 41 21 3
16 1 17 -17 7 -12 -6 -26 -8 -32 -5 -15 10 -6 40 11 40 16 0 27 19 13 21 -4 1
-18 -1 -30 -3z"/>
<path d="M1305 340 c-12 -4 -26 -15 -34 -23 -15 -19 -11 -69 6 -74 7 -3 9 3 6
15 -7 29 14 62 41 62 44 0 73 -59 44 -89 -11 -10 -9 -12 7 -9 28 5 34 77 8
100 -24 21 -54 28 -78 18z"/>
<path d="M1416 328 c4 -13 7 -43 6 -68 -1 -71 13 -71 18 0 5 60 7 65 29 65 13
0 26 6 28 13 3 8 -9 12 -42 12 -44 0 -46 -1 -39 -22z"/>
<path d="M1586 329 c-20 -16 -26 -29 -26 -58 0 -49 24 -71 78 -71 41 0 42 1
42 35 0 23 -5 35 -14 35 -9 0 -12 -8 -8 -25 4 -21 1 -25 -21 -25 -48 0 -72 46
-43 85 10 14 21 17 50 12 41 -7 53 16 14 27 -36 9 -43 7 -72 -15z"/>
<path d="M1740 337 c-14 -7 -31 -25 -38 -40 -32 -66 65 -130 117 -78 56 56
-10 153 -79 118z m66 -42 c34 -52 -27 -103 -70 -59 -19 18 -20 38 -6 65 15 28
56 24 76 -6z"/>
<path d="M1858 344 c-8 -17 4 -144 13 -138 5 3 9 30 9 60 0 38 4 54 13 54 21
0 37 -22 37 -50 0 -14 -5 -31 -12 -38 -9 -9 -9 -12 3 -12 40 0 53 61 20 98
-19 23 -76 40 -83 26z"/>
<path d="M1450 270 c0 -5 9 -10 20 -10 11 0 20 5 20 10 0 6 -9 10 -20 10 -11
0 -20 -4 -20 -10z"/>
</g>
</svg>
